<?xml version="1.0" encoding="UTF-8" standalone="no"?>
<!-- Created with Inkscape (http://www.inkscape.org/) -->

<svg
   version="1.1"
   id="svg1"
   width="1440"
   height="384"
   viewBox="0 0 1440 384"
   sodipodi:docname="peak_overlay_repetition_all_2.svg"
   inkscape:version="1.3.2 (091e20ef0f, 2023-11-25)"
   xmlns:inkscape="http://www.inkscape.org/namespaces/inkscape"
   xmlns:sodipodi="http://sodipodi.sourceforge.net/DTD/sodipodi-0.dtd"
   xmlns="http://www.w3.org/2000/svg"
   xmlns:svg="http://www.w3.org/2000/svg">
  <defs
     id="defs1">
    <clipPath
       clipPathUnits="userSpaceOnUse"
       id="clipPath22">
      <path
         d="M 135,31.68 H 515.45455 V 253.44 H 135 Z"
         id="path22" />
    </clipPath>
    <clipPath
       clipPathUnits="userSpaceOnUse"
       id="clipPath24">
      <path
         d="M 135,31.68 H 515.45455 V 253.44 H 135 Z"
         id="path24" />
    </clipPath>
    <clipPath
       clipPathUnits="userSpaceOnUse"
       id="clipPath26">
      <path
         d="M 135,31.68 H 515.45455 V 253.44 H 135 Z"
         id="path26" />
    </clipPath>
    <clipPath
       clipPathUnits="userSpaceOnUse"
       id="clipPath28">
      <path
         d="M 135,31.68 H 515.45455 V 253.44 H 135 Z"
         id="path28" />
    </clipPath>
    <clipPath
       clipPathUnits="userSpaceOnUse"
       id="clipPath49">
      <path
         d="M 591.54545,31.68 H 972 V 253.44 H 591.54545 Z"
         id="path49" />
    </clipPath>
    <clipPath
       clipPathUnits="userSpaceOnUse"
       id="clipPath51">
      <path
         d="M 591.54545,31.68 H 972 V 253.44 H 591.54545 Z"
         id="path51" />
    </clipPath>
    <clipPath
       clipPathUnits="userSpaceOnUse"
       id="clipPath53">
      <path
         d="M 591.54545,31.68 H 972 V 253.44 H 591.54545 Z"
         id="path53" />
    </clipPath>
    <clipPath
       clipPathUnits="userSpaceOnUse"
       id="clipPath55">
      <path
         d="M 591.54545,31.68 H 972 V 253.44 H 591.54545 Z"
         id="path55" />
    </clipPath>
    <clipPath
       clipPathUnits="userSpaceOnUse"
       id="clipPath63">
      <path
         d="M -1016,-351 H 1660 V 1068 H -1016 Z"
         transform="translate(0.00136364,-2.5000009e-5)"
         id="path63" />
    </clipPath>
    <clipPath
       clipPathUnits="userSpaceOnUse"
       id="clipPath66">
      <path
         d="M -1016,-351 H 1660 V 1068 H -1016 Z"
         transform="translate(0.00136364)"
         id="path66" />
    </clipPath>
    <clipPath
       clipPathUnits="userSpaceOnUse"
       id="clipPath69">
      <path
         d="M -1016,-351 H 1660 V 1068 H -1016 Z"
         transform="translate(0.00136364,2.5000006e-4)"
         id="path69" />
    </clipPath>
    <clipPath
       clipPathUnits="userSpaceOnUse"
       id="clipPath72">
      <path
         d="M -1016,-351 H 1660 V 1068 H -1016 Z"
         transform="translate(0.00136364,-2.5000006e-4)"
         id="path72" />
    </clipPath>
  </defs>
  <sodipodi:namedview
     id="namedview1"
     pagecolor="#ffffff"
     bordercolor="#000000"
     borderopacity="0.25"
     inkscape:showpageshadow="2"
     inkscape:pageopacity="0.0"
     inkscape:pagecheckerboard="0"
     inkscape:deskcolor="#d1d1d1"
     inkscape:zoom="0.49153742"
     inkscape:cx="619.48488"
     inkscape:cy="11.189382"
     inkscape:window-width="1920"
     inkscape:window-height="1011"
     inkscape:window-x="0"
     inkscape:window-y="0"
     inkscape:window-maximized="1"
     inkscape:current-layer="g1">
    <inkscape:page
       x="0"
       y="0"
       inkscape:label="1"
       id="page1"
       width="1440"
       height="384"
       margin="0"
       bleed="0" />
  </sodipodi:namedview>
  <g
     id="g1"
     inkscape:groupmode="layer"
     inkscape:label="1">
    <path
       id="path2"
       d="m 159.86014,315.8659 h 507.2727 V 20.185903 h -507.2727 z"
       style="fill:#ffffff;fill-opacity:1;fill-rule:nonzero;stroke:none;stroke-width:1.33333"
       inkscape:export-filename="peak_overlay_repetition_all_zoom.pdf"
       inkscape:export-xdpi="96"
       inkscape:export-ydpi="96" />
    <path
       id="path3"
       d="m 159.86014,315.8659 v 4.66666"
       style="fill:#000000;fill-opacity:1;fill-rule:nonzero;stroke:#000000;stroke-width:1.06667;stroke-linecap:butt;stroke-linejoin:round;stroke-miterlimit:10;stroke-dasharray:none;stroke-opacity:1" />
    <text
       id="text3"
       xml:space="preserve"
       x="149.25597"
       y="335.32422"
       style="font-size:16px;stroke-width:1.33333"><tspan
         style="font-variant:normal;font-weight:normal;font-size:13.3333px;font-family:'DejaVu Sans';writing-mode:lr-tb;fill:#000000;fill-opacity:1;fill-rule:nonzero;stroke:none;stroke-width:1.33333"
         x="149.25597 157.73598 161.97597"
         y="335.32422"
         sodipodi:role="line"
         id="tspan3">1.5</tspan></text>
    <path
       id="path4"
       d="m 228.41051,315.8659 v 4.66666"
       style="fill:#000000;fill-opacity:1;fill-rule:nonzero;stroke:#000000;stroke-width:1.06667;stroke-linecap:butt;stroke-linejoin:round;stroke-miterlimit:10;stroke-dasharray:none;stroke-opacity:1" />
    <text
       id="text4"
       xml:space="preserve"
       x="217.80634"
       y="335.32422"
       style="font-size:16px;stroke-width:1.33333"><tspan
         style="font-variant:normal;font-weight:normal;font-size:13.3333px;font-family:'DejaVu Sans';writing-mode:lr-tb;fill:#000000;fill-opacity:1;fill-rule:nonzero;stroke:none;stroke-width:1.33333"
         x="217.80634 226.28635 230.52634"
         y="335.32422"
         sodipodi:role="line"
         id="tspan4">2.0</tspan></text>
    <path
       id="path5"
       d="m 296.96087,315.8659 v 4.66666"
       style="fill:#000000;fill-opacity:1;fill-rule:nonzero;stroke:#000000;stroke-width:1.06667;stroke-linecap:butt;stroke-linejoin:round;stroke-miterlimit:10;stroke-dasharray:none;stroke-opacity:1" />
    <text
       id="text5"
       xml:space="preserve"
       x="286.35672"
       y="335.32422"
       style="font-size:16px;stroke-width:1.33333"><tspan
         style="font-variant:normal;font-weight:normal;font-size:13.3333px;font-family:'DejaVu Sans';writing-mode:lr-tb;fill:#000000;fill-opacity:1;fill-rule:nonzero;stroke:none;stroke-width:1.33333"
         x="286.35672 294.8367 299.07672"
         y="335.32422"
         sodipodi:role="line"
         id="tspan5">2.5</tspan></text>
    <path
       id="path6"
       d="m 365.51124,315.8659 v 4.66666"
       style="fill:#000000;fill-opacity:1;fill-rule:nonzero;stroke:#000000;stroke-width:1.06667;stroke-linecap:butt;stroke-linejoin:round;stroke-miterlimit:10;stroke-dasharray:none;stroke-opacity:1" />
    <text
       id="text6"
       xml:space="preserve"
       x="354.90707"
       y="335.32422"
       style="font-size:16px;stroke-width:1.33333"><tspan
         style="font-variant:normal;font-weight:normal;font-size:13.3333px;font-family:'DejaVu Sans';writing-mode:lr-tb;fill:#000000;fill-opacity:1;fill-rule:nonzero;stroke:none;stroke-width:1.33333"
         x="354.90707 363.38708 367.62708"
         y="335.32422"
         sodipodi:role="line"
         id="tspan6">3.0</tspan></text>
    <path
       id="path7"
       d="m 434.06161,315.8659 v 4.66666"
       style="fill:#000000;fill-opacity:1;fill-rule:nonzero;stroke:#000000;stroke-width:1.06667;stroke-linecap:butt;stroke-linejoin:round;stroke-miterlimit:10;stroke-dasharray:none;stroke-opacity:1" />
    <text
       id="text7"
       xml:space="preserve"
       x="423.45746"
       y="335.32422"
       style="font-size:16px;stroke-width:1.33333"><tspan
         style="font-variant:normal;font-weight:normal;font-size:13.3333px;font-family:'DejaVu Sans';writing-mode:lr-tb;fill:#000000;fill-opacity:1;fill-rule:nonzero;stroke:none;stroke-width:1.33333"
         x="423.45746 431.93744 436.17746"
         y="335.32422"
         sodipodi:role="line"
         id="tspan7">3.5</tspan></text>
    <path
       id="path8"
       d="m 502.61197,315.8659 v 4.66666"
       style="fill:#000000;fill-opacity:1;fill-rule:nonzero;stroke:#000000;stroke-width:1.06667;stroke-linecap:butt;stroke-linejoin:round;stroke-miterlimit:10;stroke-dasharray:none;stroke-opacity:1" />
    <text
       id="text8"
       xml:space="preserve"
       x="492.00781"
       y="335.32422"
       style="font-size:16px;stroke-width:1.33333"><tspan
         style="font-variant:normal;font-weight:normal;font-size:13.3333px;font-family:'DejaVu Sans';writing-mode:lr-tb;fill:#000000;fill-opacity:1;fill-rule:nonzero;stroke:none;stroke-width:1.33333"
         x="492.00781 500.48782 504.72781"
         y="335.32422"
         sodipodi:role="line"
         id="tspan8">4.0</tspan></text>
    <path
       id="path9"
       d="m 571.16234,315.8659 v 4.66666"
       style="fill:#000000;fill-opacity:1;fill-rule:nonzero;stroke:#000000;stroke-width:1.06667;stroke-linecap:butt;stroke-linejoin:round;stroke-miterlimit:10;stroke-dasharray:none;stroke-opacity:1" />
    <text
       id="text9"
       xml:space="preserve"
       x="560.55817"
       y="335.32422"
       style="font-size:16px;stroke-width:1.33333"><tspan
         style="font-variant:normal;font-weight:normal;font-size:13.3333px;font-family:'DejaVu Sans';writing-mode:lr-tb;fill:#000000;fill-opacity:1;fill-rule:nonzero;stroke:none;stroke-width:1.33333"
         x="560.55817 569.03821 573.2782"
         y="335.32422"
         sodipodi:role="line"
         id="tspan9">4.5</tspan></text>
    <path
       id="path10"
       d="m 639.7127,315.8659 v 4.66666"
       style="fill:#000000;fill-opacity:1;fill-rule:nonzero;stroke:#000000;stroke-width:1.06667;stroke-linecap:butt;stroke-linejoin:round;stroke-miterlimit:10;stroke-dasharray:none;stroke-opacity:1" />
    <text
       id="text10"
       xml:space="preserve"
       x="629.10852"
       y="335.32422"
       style="font-size:16px;stroke-width:1.33333"><tspan
         style="font-variant:normal;font-weight:normal;font-size:13.3333px;font-family:'DejaVu Sans';writing-mode:lr-tb;fill:#000000;fill-opacity:1;fill-rule:nonzero;stroke:none;stroke-width:1.33333"
         x="629.10852 637.58856 641.82855"
         y="335.32422"
         sodipodi:role="line"
         id="tspan10">5.0</tspan></text>
    <text
       id="text11"
       xml:space="preserve"
       x="374.66318"
       y="357.32422"
       style="font-size:16px;stroke-width:1.33333"><tspan
         style="font-variant:normal;font-weight:normal;font-size:20px;font-family:'Times New Roman';writing-mode:lr-tb;fill:#000000;fill-opacity:1;fill-rule:nonzero;stroke:none;stroke-width:1.33333"
         x="374.66318 386.19568 391.75568 407.31567 416.19568 421.19568 427.85568 437.85568 445.63568"
         y="357.32422"
         sodipodi:role="line"
         id="tspan11">Time (ns)</tspan></text>
    <path
       id="path11"
       d="m 159.86014,302.4259 h -4.66667"
       style="fill:#000000;fill-opacity:1;fill-rule:nonzero;stroke:#000000;stroke-width:1.06667;stroke-linecap:butt;stroke-linejoin:round;stroke-miterlimit:10;stroke-dasharray:none;stroke-opacity:1" />
    <text
       id="text12"
       xml:space="preserve"
       x="142.04764"
       y="307.4884"
       style="font-size:16px;stroke-width:1.33333"><tspan
         style="font-variant:normal;font-weight:normal;font-size:13.3333px;font-family:'DejaVu Sans';writing-mode:lr-tb;fill:#000000;fill-opacity:1;fill-rule:nonzero;stroke:none;stroke-width:1.33333"
         x="142.04764"
         y="307.4884"
         id="tspan12">0</tspan></text>
    <path
       id="path12"
       d="m 159.86014,268.31249 h -4.66667"
       style="fill:#000000;fill-opacity:1;fill-rule:nonzero;stroke:#000000;stroke-width:1.06667;stroke-linecap:butt;stroke-linejoin:round;stroke-miterlimit:10;stroke-dasharray:none;stroke-opacity:1" />
    <text
       id="text13"
       xml:space="preserve"
       x="116.61014"
       y="273.37497"
       style="font-size:16px;stroke-width:1.33333"><tspan
         style="font-variant:normal;font-weight:normal;font-size:13.3333px;font-family:'DejaVu Sans';writing-mode:lr-tb;fill:#000000;fill-opacity:1;fill-rule:nonzero;stroke:none;stroke-width:1.33333"
         x="116.61014 125.09014 133.57014 142.05014"
         y="273.37497"
         sodipodi:role="line"
         id="tspan13">2500</tspan></text>
    <path
       id="path13"
       d="m 159.86014,234.19908 h -4.66667"
       style="fill:#000000;fill-opacity:1;fill-rule:nonzero;stroke:#000000;stroke-width:1.06667;stroke-linecap:butt;stroke-linejoin:round;stroke-miterlimit:10;stroke-dasharray:none;stroke-opacity:1" />
    <text
       id="text14"
       xml:space="preserve"
       x="116.61014"
       y="239.26158"
       style="font-size:16px;stroke-width:1.33333"><tspan
         style="font-variant:normal;font-weight:normal;font-size:13.3333px;font-family:'DejaVu Sans';writing-mode:lr-tb;fill:#000000;fill-opacity:1;fill-rule:nonzero;stroke:none;stroke-width:1.33333"
         x="116.61014 125.09014 133.57014 142.05014"
         y="239.26158"
         sodipodi:role="line"
         id="tspan14">5000</tspan></text>
    <path
       id="path14"
       d="m 159.86014,200.08567 h -4.66667"
       style="fill:#000000;fill-opacity:1;fill-rule:nonzero;stroke:#000000;stroke-width:1.06667;stroke-linecap:butt;stroke-linejoin:round;stroke-miterlimit:10;stroke-dasharray:none;stroke-opacity:1" />
    <text
       id="text15"
       xml:space="preserve"
       x="116.61014"
       y="205.14818"
       style="font-size:16px;stroke-width:1.33333"><tspan
         style="font-variant:normal;font-weight:normal;font-size:13.3333px;font-family:'DejaVu Sans';writing-mode:lr-tb;fill:#000000;fill-opacity:1;fill-rule:nonzero;stroke:none;stroke-width:1.33333"
         x="116.61014 125.09014 133.57014 142.05014"
         y="205.14818"
         sodipodi:role="line"
         id="tspan15">7500</tspan></text>
    <path
       id="path15"
       d="m 159.86014,165.97227 h -4.66667"
       style="fill:#000000;fill-opacity:1;fill-rule:nonzero;stroke:#000000;stroke-width:1.06667;stroke-linecap:butt;stroke-linejoin:round;stroke-miterlimit:10;stroke-dasharray:none;stroke-opacity:1" />
    <text
       id="text16"
       xml:space="preserve"
       x="108.13097"
       y="171.03476"
       style="font-size:16px;stroke-width:1.33333"><tspan
         style="font-variant:normal;font-weight:normal;font-size:13.3333px;font-family:'DejaVu Sans';writing-mode:lr-tb;fill:#000000;fill-opacity:1;fill-rule:nonzero;stroke:none;stroke-width:1.33333"
         x="108.13097 116.61097 125.09097 133.57097 142.05096"
         y="171.03476"
         sodipodi:role="line"
         id="tspan16">10000</tspan></text>
    <path
       id="path16"
       d="m 159.86014,131.85887 h -4.66667"
       style="fill:#000000;fill-opacity:1;fill-rule:nonzero;stroke:#000000;stroke-width:1.06667;stroke-linecap:butt;stroke-linejoin:round;stroke-miterlimit:10;stroke-dasharray:none;stroke-opacity:1" />
    <text
       id="text17"
       xml:space="preserve"
       x="108.13097"
       y="136.92137"
       style="font-size:16px;stroke-width:1.33333"><tspan
         style="font-variant:normal;font-weight:normal;font-size:13.3333px;font-family:'DejaVu Sans';writing-mode:lr-tb;fill:#000000;fill-opacity:1;fill-rule:nonzero;stroke:none;stroke-width:1.33333"
         x="108.13097 116.61097 125.09097 133.57097 142.05096"
         y="136.92137"
         sodipodi:role="line"
         id="tspan17">12500</tspan></text>
    <path
       id="path17"
       d="m 159.86014,97.745461 h -4.66667"
       style="fill:#000000;fill-opacity:1;fill-rule:nonzero;stroke:#000000;stroke-width:1.06667;stroke-linecap:butt;stroke-linejoin:round;stroke-miterlimit:10;stroke-dasharray:none;stroke-opacity:1" />
    <text
       id="text18"
       xml:space="preserve"
       x="108.13097"
       y="102.80795"
       style="font-size:16px;stroke-width:1.33333"><tspan
         style="font-variant:normal;font-weight:normal;font-size:13.3333px;font-family:'DejaVu Sans';writing-mode:lr-tb;fill:#000000;fill-opacity:1;fill-rule:nonzero;stroke:none;stroke-width:1.33333"
         x="108.13097 116.61097 125.09097 133.57097 142.05096"
         y="102.80795"
         sodipodi:role="line"
         id="tspan18">15000</tspan></text>
    <path
       id="path18"
       d="m 159.86014,63.632048 h -4.66667"
       style="fill:#000000;fill-opacity:1;fill-rule:nonzero;stroke:#000000;stroke-width:1.06667;stroke-linecap:butt;stroke-linejoin:round;stroke-miterlimit:10;stroke-dasharray:none;stroke-opacity:1" />
    <text
       id="text19"
       xml:space="preserve"
       x="108.13097"
       y="68.69455"
       style="font-size:16px;stroke-width:1.33333"><tspan
         style="font-variant:normal;font-weight:normal;font-size:13.3333px;font-family:'DejaVu Sans';writing-mode:lr-tb;fill:#000000;fill-opacity:1;fill-rule:nonzero;stroke:none;stroke-width:1.33333"
         x="108.13097 116.61097 125.09097 133.57097 142.05096"
         y="68.69455"
         sodipodi:role="line"
         id="tspan19">17500</tspan></text>
    <path
       id="path19"
       d="m 159.86014,29.518649 h -4.66667"
       style="fill:#000000;fill-opacity:1;fill-rule:nonzero;stroke:#000000;stroke-width:1.06667;stroke-linecap:butt;stroke-linejoin:round;stroke-miterlimit:10;stroke-dasharray:none;stroke-opacity:1" />
    <text
       id="text20"
       xml:space="preserve"
       x="108.13097"
       y="34.581139"
       style="font-size:16px;stroke-width:1.33333"><tspan
         style="font-variant:normal;font-weight:normal;font-size:13.3333px;font-family:'DejaVu Sans';writing-mode:lr-tb;fill:#000000;fill-opacity:1;fill-rule:nonzero;stroke:none;stroke-width:1.33333"
         x="108.13097 116.61097 125.09097 133.57097 142.05096"
         y="34.581139"
         sodipodi:role="line"
         id="tspan20">20000</tspan></text>
    <text
       id="text21"
       xml:space="preserve"
       transform="rotate(-90)"
       x="-234.95297"
       y="98.52681"
       style="font-size:16px;stroke-width:1.33333"><tspan
         style="font-variant:normal;font-weight:normal;font-size:20px;font-family:'Times New Roman';writing-mode:lr-tb;fill:#000000;fill-opacity:1;fill-rule:nonzero;stroke:none;stroke-width:1.33333"
         x="-234.95297 -220.51297 -211.63298 -206.07297 -197.19298 -188.31297 -182.75298 -177.19298 -167.19298 -157.19298 -152.19298 -143.31297 -133.31297 -124.43298 -114.43298 -108.87298"
         y="98.52681"
         sodipodi:role="line"
         id="tspan21">Detection events</tspan></text>
    <path
       id="path21"
       d="m -1,42.502786 1.553657,0.0964 1.649332,-0.07164 3.298664,0.133042 1.649333,-0.15351 4.947996,0.0614 1.649332,-0.204681 1.649332,0.296787 8.246661,-0.143276 1.649333,-0.214915 1.649332,0.173979 3.298664,-0.06141 1.649332,0.112575 3.298665,-0.122809 1.649332,0.07164 1.649332,-0.163745 3.298664,0.163745 1.649332,-0.173979 3.298665,0.0307 3.298664,-0.173978 1.649332,0.173978 16.493322,-0.01023 1.649332,0.0307 1.649332,-0.173978 1.649333,0.133042 4.947996,-0.163744 1.649332,0.143276 1.649332,-0.143276 1.649333,0.143276 3.298664,-0.10234 1.649332,0.08187 1.649332,-0.122808 3.298665,0.09211 3.298664,-0.225148 1.649332,0.20468 4.947995,-0.112574 1.64933,0.09211 6.59733,-0.0307 4.948,-0.04094 6.59733,-0.0307 8.24666,0.10234 1.64933,-0.15351 1.64933,0.10234 3.29867,-0.01023 4.94799,0.0614 1.64934,-0.05117 4.94799,0.112574 6.59733,0.02047 1.64933,0.184213 4.948,-0.163745 1.64933,0.133042 1.64933,-0.07164 3.29867,0.194447 1.64933,-0.122809 1.64933,0.173979 1.64933,-0.01023 1.64934,0.266084 1.64933,0.04094 1.64933,-0.25585 4.948,0.419595 4.94799,0.0614 1.64934,0.347957 1.64933,0.10234 1.64933,0.214914 1.64933,-0.0307 1.64934,0.491233 1.64933,0.0307 1.64933,0.450297 1.64933,-0.194446 1.64933,0.15351 3.29867,0.68568 1.64933,-0.0614 1.64933,0.644743 1.64933,0.798254 1.64934,-0.399127 1.64933,0.654977 1.64933,0.849424 1.64933,-0.04094 3.29867,1.238317 1.64933,0.706147 1.64933,1.023402 1.64933,-0.07164 3.29867,2.4664 1.64933,0.08187 1.64933,1.320189 1.64934,1.657911 1.64933,0.542403 1.64933,1.135977 1.64933,2.507335 3.29867,2.077507 1.64933,2.548271 1.64933,0.747084 1.64933,4.114077 1.64933,1.893294 1.64934,2.343591 1.64933,4.083375 1.64933,0.266084 1.64933,3.960567 1.64934,4.983968 1.64933,2.4664 1.64933,6.160881 3.29866,7.562939 1.64934,6.3451 1.64933,7.37873 1.64933,4.68718 1.64933,7.53224 1.64934,4.52343 1.64933,6.65212 1.64933,8.37143 1.64933,6.07901 3.29867,15.48407 1.64933,8.79103 3.29866,11.86123 1.64933,9.65068 1.64934,4.10385 4.94799,18.05281 1.64934,3.44887 3.29866,9.77349 1.64933,0.35819 1.64933,2.73248 3.29867,0.57311 1.64933,2.4664 1.64933,0.84942 1.64934,-5.8641 1.64933,1.61698 1.64933,-0.56287 1.64933,-3.38746 1.64933,-4.94303 1.64934,-2.9474 1.64933,-0.79826 1.64933,-4.29829 1.64933,-5.08631 1.64933,-1.97516 1.64934,-2.886 1.64933,-7.24568 1.64933,-3.85823 1.64933,-2.07751 1.64934,-5.99713 1.64933,-5.21935 1.64933,-2.45617 1.64933,-5.72082 1.64933,-7.84949 1.64934,-3.50004 1.64933,-2.54827 4.948,-16.85543 1.64933,-3.66378 1.64933,-6.42697 1.64933,-5.13748 3.29867,-8.14628 1.64933,-7.13311 1.64933,-3.16232 1.64933,-8.08487 1.64934,-3.86846 1.64933,-4.850928 1.64933,-4.206183 1.64933,-4.861161 1.64933,-4.175481 1.64934,-4.482501 1.64933,-5.157947 3.29866,-4.891863 1.64933,-4.564374 1.64934,-1.954698 1.64933,-3.66378 1.64933,-2.814356 1.64933,-1.586273 1.64934,-1.78072 1.64933,-1.944464 1.64933,-1.668146 1.64933,-1.09504 1.64933,-1.299721 1.64934,-1.074572 1.64933,-0.757318 3.29866,-1.821656 1.64934,-0.0307 1.64933,-0.808488 1.64933,-0.511701 1.64933,0.01023 1.64933,-0.194446 1.64934,-0.440063 1.64933,-0.173978 1.64933,0.02047 1.64933,-0.296787 4.948,-0.07164 3.29866,-0.112574 1.64934,0.02047 1.64933,-0.122809 4.94799,0.133043 16.49333,-0.05117 1.64933,-0.102341 1.64933,0.173979 4.948,-0.122809 3.29866,-0.02047 h 4.948 l 1.64933,-0.04094 1.64933,0.112575 3.29867,-0.05117 6.59733,-0.0307 1.64933,0.05117 1.64933,-0.122808 3.29866,0.10234 1.64934,-0.10234 8.24666,0.01023 1.64933,-0.0307 1.64933,0.10234 3.29867,-0.09211 138.5439,-0.07164 v 0"
       style="fill:none;stroke:#800000;stroke-width:1.5;stroke-linecap:square;stroke-linejoin:round;stroke-miterlimit:10;stroke-dasharray:none;stroke-opacity:1"
       transform="matrix(1.3333333,0,0,-1.3333333,-20.13986,358.10589)"
       clip-path="url(#clipPath22)" />
    <path
       id="path23"
       d="m -1,42.301074 1.553657,0.144605 1.649332,-0.163744 1.649332,0.225149 1.649332,-0.225149 6.597329,-0.07164 1.649332,0.133042 1.649332,-0.09211 1.649333,0.09211 4.947996,-0.15351 1.649332,0.112574 3.298665,-0.07164 1.649332,-0.0307 1.649332,0.10234 1.649332,-0.112574 1.649332,0.0614 1.649333,-0.112574 3.298664,0.05117 6.597329,-0.02047 1.649332,0.194446 3.298664,-0.173978 1.649332,0.143276 1.649332,-0.15351 4.947997,-0.122808 1.649332,-0.07164 1.649332,0.173979 11.545326,-0.10234 1.649332,0.07164 1.649332,-0.122808 1.649332,0.07164 1.649332,-0.0614 1.649332,0.09211 8.246661,-0.10234 3.298665,0.07164 1.649332,-0.08187 1.649332,0.112574 4.947997,-0.0614 18.14265,-0.04094 1.64934,0.10234 1.64933,-0.10234 13.19465,0.07164 1.64934,-0.05117 1.64933,0.112574 3.29866,-0.122808 4.948,0.0307 1.64933,0.112574 4.948,-0.01023 8.24666,0.15351 1.64933,-0.02047 3.29867,0.286553 1.64933,-0.122809 8.24666,0.347957 1.64933,-0.112574 1.64933,0.235382 4.948,0.245617 1.64933,0.266085 3.29867,-0.02047 1.64933,0.644743 1.64933,-0.04094 1.64933,0.173978 1.64934,-0.10234 4.94799,0.685679 1.64933,0.09211 1.64934,0.235382 1.64933,0.593573 1.64933,0.399127 h 1.64933 l 1.64933,0.614042 4.948,0.706147 1.64933,0.961998 1.64934,0.388893 1.64933,1.013168 1.64933,0.470765 1.64933,0.255851 1.64933,1.719316 1.64934,0.480999 1.64933,1.125742 1.64933,0.849424 1.64933,1.852358 1.64934,0.695913 1.64933,1.545338 1.64933,0.173978 1.64933,1.93423 6.59733,6.918199 3.29866,6.426966 1.64934,1.954698 1.64933,2.957632 1.64933,3.755887 1.64933,2.29242 1.64934,4.236886 1.64933,5.393329 1.64933,2.56874 1.64933,5.485444 3.29867,9.8963 6.59733,23.01631 1.64933,7.25592 1.64933,5.16818 1.64933,6.9489 1.64933,6.3758 3.29867,15.45337 1.64933,4.4825 1.64933,6.97961 1.64933,5.13748 1.64934,3.76612 1.64933,5.9869 1.64933,5.27052 1.64933,0.84942 1.64934,4.99421 1.64933,1.44299 1.64933,4.05268 1.64933,-0.9927 1.64933,0.77778 1.64934,0.36843 3.29866,-1.13598 1.64933,-2.61991 1.64934,-2.9781 1.64933,-1.52487 1.64933,-2.95763 1.64933,-2.50734 1.64933,-3.5512 1.64934,-3.23395 1.64933,-7.12288 1.64933,-1.79096 1.64933,-5.30122 1.64933,-2.0468 1.64934,-5.59801 3.29866,-8.14628 1.64933,-6.36557 1.64934,-0.69591 1.64933,-7.05124 1.64933,-3.71495 1.64933,-1.62721 1.64933,-5.36263 1.64934,-3.21348 1.64933,-5.3524 1.64933,-2.12867 1.64933,-4.10384 1.64934,-2.15938 1.64933,-3.37723 1.64933,-3.89916 1.64933,-4.3904 1.64933,-2.69155 1.64934,-5.13747 1.64933,-2.27196 1.64933,-3.78659 1.64933,-5.260287 1.64934,-1.913762 3.29866,-8.084878 1.64933,-3.500035 1.64933,-2.333357 1.64934,-3.735418 1.64933,-2.834824 3.29866,-6.938667 3.29867,-4.4518 1.64933,-3.193015 1.64933,-2.507335 1.64933,-0.593573 1.64934,-3.080441 1.64933,-0.726616 1.64933,-1.494167 1.64933,-1.893294 1.64933,-1.176912 1.64934,-0.614042 1.64933,-1.238316 3.29866,-1.412295 1.64934,-0.83919 1.64933,-0.286553 1.64933,-0.450297 1.64933,-0.09211 1.64933,-0.440063 1.64934,-0.163744 3.29866,-0.501467 4.948,-0.184213 1.64933,0.04094 3.29866,-0.194446 6.59733,-0.0307 3.29867,0.01023 4.94799,-0.173979 1.64934,0.163745 6.59732,-0.10234 1.64934,-0.01023 1.64933,0.112574 3.29866,-0.10234 9.896,-0.06141 3.29866,-0.04094 1.64933,-0.0307 1.64933,0.143277 3.29867,-0.08187 1.64933,0.05117 1.64933,-0.143277 1.64934,0.09211 1.64933,-0.122808 4.94799,0.08187 28.03865,-0.04094 3.29867,-0.09211 4.94799,0.04094 118.75192,-0.05117 v 0"
       style="fill:none;stroke:#ff0000;stroke-width:1.5;stroke-linecap:square;stroke-linejoin:round;stroke-miterlimit:10;stroke-dasharray:none;stroke-opacity:1"
       transform="matrix(1.3333333,0,0,-1.3333333,-20.13986,358.10589)"
       clip-path="url(#clipPath24)" />
    <path
       id="path25"
       d="m -1,42.238031 1.553657,-0.0482 3.298664,0.07164 4.947997,0.05117 1.649332,-0.07164 3.298664,0.09211 1.649332,-0.133042 1.649333,0.05117 3.298664,-0.08187 8.246661,0.04094 1.649332,-0.15351 1.649332,0.08187 4.947997,-0.112574 1.649332,0.25585 1.649332,-0.214914 16.493322,0.09211 3.298664,-0.194447 1.649332,0.163745 1.649333,-0.122808 3.298664,0.122808 1.649332,-0.05117 1.649332,0.133042 1.649332,-0.143276 8.246661,-0.02047 1.649332,0.07164 3.298665,-0.05117 1.649332,0.09211 3.298664,-0.143276 h 3.298665 3.298664 l 1.649332,0.173978 1.649332,-0.255851 13.194663,0.0614 1.64933,-0.102341 3.29866,0.08187 6.59733,0.02047 1.64933,-0.08187 9.89599,0.112575 4.948,-0.01023 3.29867,0.07164 1.64933,-0.133043 3.29866,0.286553 1.64933,-0.10234 4.948,0.05117 3.29867,-0.01023 1.64933,0.143276 1.64933,-0.15351 3.29866,0.286552 1.64934,-0.143276 1.64933,0.266085 1.64933,-0.08187 4.948,0.173978 1.64933,0.225148 1.64933,-0.173978 1.64933,0.05117 1.64934,0.266085 1.64933,0.02047 1.64933,0.15351 3.29866,-0.05117 4.948,0.777786 1.64933,-0.225149 1.64934,0.388893 1.64933,0.05117 1.64933,0.204681 3.29866,0.25585 1.64934,0.562871 3.29866,0.317255 1.64933,0.296787 1.64933,0.839189 1.64934,0.58334 1.64933,-0.573105 1.64933,0.9927 1.64933,0.184212 1.64934,0.695914 1.64933,0.859657 1.64933,-0.532169 1.64933,1.269019 1.64933,0.491233 1.64934,1.504401 1.64933,0.266085 3.29866,2.097974 1.64934,1.422529 1.64933,0.225149 1.64933,1.637443 3.29866,2.845059 3.29867,3.530737 1.64933,2.128677 1.64933,1.115508 1.64933,4.144779 1.64934,1.135977 1.64933,2.016102 1.64933,3.141845 1.64933,2.251484 1.64934,2.845059 1.64933,5.782222 1.64933,2.077507 3.29866,10.888999 1.64934,3.63308 3.29866,10.60245 1.64933,4.27782 1.64934,6.4679 1.64933,5.03514 1.64933,6.84656 1.64933,5.09654 1.64933,8.13605 1.64934,4.23688 1.64933,6.13018 3.29866,11.00158 1.64933,4.86116 1.64934,6.81586 1.64933,3.29535 1.64933,5.25005 1.64933,4.58485 1.64934,1.93423 1.64933,2.9781 1.64933,3.37722 1.64933,1.49417 1.64933,2.68131 1.64934,-0.56287 1.64933,1.40206 1.64933,-1.17691 1.64933,1.93423 1.64934,-3.29535 1.64933,-0.81872 1.64933,-2.98834 1.64933,-0.80849 1.64933,-2.64037 1.64934,-3.74566 1.64933,0.84943 1.64933,-7.32756 1.64933,-0.44007 1.64933,-0.95176 3.29867,-7.68575 1.64933,-3.24419 1.64933,-1.99563 1.64934,-2.39476 1.64933,-4.08337 1.64933,-5.05561 3.29866,-5.29099 1.64934,-2.4664 1.64933,-3.71495 1.64933,-4.58484 1.64933,-3.52051 1.64934,-1.69884 1.64933,-4.41087 3.29866,-7.92113 1.64933,-3.34653 3.29867,-9.03664 1.64933,-3.27488 1.64933,-5.9255 1.64934,-4.9021 1.64933,-3.82752 1.64933,-4.155017 1.64933,-4.625778 3.29867,-7.010306 1.64933,-5.209117 1.64933,-3.776354 1.64933,-2.016102 1.64933,-4.257353 3.29867,-6.426966 1.64933,-1.790954 1.64933,-2.752952 1.64934,-2.159379 1.64933,-2.947398 1.64933,-1.002934 1.64933,-1.719316 1.64933,-1.350891 1.64934,-1.821656 1.64933,-0.777785 3.29866,-1.770486 1.64934,-0.470765 1.64933,-0.757318 1.64933,-0.429829 1.64933,-0.266084 1.64933,-0.573106 3.29867,-0.491233 4.94799,-0.30702 3.29867,-0.378659 1.64933,0.0307 1.64933,-0.10234 3.29867,-0.02047 18.14265,-0.133043 3.29867,-0.01023 3.29866,-0.01023 4.948,-0.01023 1.64933,-0.04094 1.64933,0.153511 1.64933,-0.163745 1.64934,-0.01023 1.64933,0.112575 1.64933,-0.09211 4.948,0.07164 1.64933,-0.08187 3.29866,0.04094 9.896,-0.0614 3.29866,0.02047 1.64933,-0.07164 1.64934,0.07164 4.94799,-0.0307 18.14266,-0.07164 3.29866,0.04094 6.59733,-0.02047 23.09065,-0.05117 4.948,0.02047 h 8.24666 l 14.84399,-0.02047 6.59732,0.0307 18.14266,-0.0307 4.94799,0.02047 32.98665,0.02047 v 0"
       style="fill:none;stroke:#ff6347;stroke-width:1.5;stroke-linecap:square;stroke-linejoin:round;stroke-miterlimit:10;stroke-dasharray:none;stroke-opacity:1"
       transform="matrix(1.3333333,0,0,-1.3333333,-20.13986,358.10589)"
       clip-path="url(#clipPath26)" />
    <path
       id="path27"
       d="m -1,42.084972 3.202989,0.166261 1.649332,-0.122808 1.649332,0.20468 1.649333,0.01023 3.298664,-0.163744 8.246661,-0.0307 1.649332,0.10234 3.298664,-0.10234 3.298665,0.05117 1.649332,0.02047 1.649332,-0.163744 1.649332,0.15351 1.649332,-0.15351 1.649333,0.10234 4.947996,-0.143276 3.298664,0.225148 1.649333,-0.235382 28.038647,-0.01023 1.649332,0.122808 1.649332,-0.08187 3.298664,0.04094 3.298665,-0.143277 4.947996,0.143277 4.947997,-0.143277 1.649332,0.09211 6.597329,-0.143277 1.64933,0.122809 3.29867,-0.02047 3.29866,0.07164 1.64933,-0.09211 3.29867,0.102341 1.64933,-0.102341 11.54532,0.214915 1.64934,-0.204681 6.59732,0.153511 1.64934,-0.122808 3.29866,0.01023 1.64933,0.163744 1.64934,-0.184212 1.64933,0.08187 1.64933,-0.04094 1.64933,0.194446 1.64933,0.0307 3.29867,-0.10234 1.64933,-0.01023 1.64933,0.163744 3.29867,-0.07164 1.64933,0.10234 1.64933,-0.184212 1.64933,0.327489 3.29867,-0.06141 3.29866,0.347957 4.948,0.122808 1.64933,0.245617 8.24666,0.235382 1.64933,0.102341 3.29867,0.614041 3.29866,0.05117 1.64934,0.194447 1.64933,0.419594 1.64933,-0.122808 3.29866,0.491233 1.64934,0.654978 1.64933,-0.102341 1.64933,0.409361 3.29866,1.504402 1.64934,-0.614042 1.64933,0.757318 1.64933,1.258785 1.64933,-0.511702 1.64934,0.798254 1.64933,1.504401 3.29866,0.552638 1.64933,1.514635 3.29867,0.542403 1.64933,2.128677 1.64933,1.269018 3.29867,1.893294 4.94799,5.352394 1.64934,1.9854 1.64933,2.312889 1.64933,1.084807 1.64933,3.121376 1.64933,2.548272 1.64934,1.688613 1.64933,3.633078 1.64933,2.046805 1.64933,5.311457 1.64934,2.425463 1.64933,4.318758 1.64933,4.830458 1.64933,3.776353 1.64933,5.73105 3.29867,9.49717 3.29866,10.74572 3.29867,12.95628 1.64933,4.5439 1.64933,8.34073 1.64933,5.79246 1.64934,4.94303 1.64933,3.43863 1.64933,7.10241 1.64933,7.95184 1.64933,1.26901 1.64934,7.8802 1.64933,3.01904 1.64933,2.0468 1.64933,5.27052 1.64934,1.25879 1.64933,2.72225 1.64933,1.17691 1.64933,2.47663 1.64933,0.26609 1.64934,0.75732 1.64933,-3.05998 1.64933,-2.28218 1.64933,2.95763 1.64934,-2.84506 1.64933,-3.21348 1.64933,-0.5117 1.64933,-3.79682 1.64933,-2.19008 1.64934,-1.3816 1.64933,-4.0322 1.64933,-1.88306 3.29866,-8.56588 1.64934,-3.57167 1.64933,-0.0307 3.29866,-7.76762 1.64934,-3.12137 1.64933,-2.66085 1.64933,-2.24125 1.64933,-4.33923 1.64933,-3.89916 1.64934,-2.79389 1.64933,-4.5439 3.29866,-5.37286 1.64934,-3.30559 1.64933,-6.8568 1.64933,-3.40793 1.64933,-3.92986 1.64933,-3.3977 1.64934,-4.55414 1.64933,-5.0556 1.64933,-4.46204 1.64933,-2.0775 1.64934,-4.943031 1.64933,-5.413798 1.64933,-3.182781 1.64933,-3.530738 1.64933,-5.812924 1.64934,-3.397695 1.64933,-2.732484 1.64933,-3.070207 1.64933,-4.277821 4.948,-7.788091 1.64933,-1.739784 1.64933,-2.24125 1.64934,-2.005869 1.64933,-1.463465 1.64933,-1.995634 3.29866,-2.486867 3.29867,-1.903529 1.64933,-0.470765 1.64933,-0.961998 4.948,-0.951764 1.64933,-0.388893 1.64933,-0.245616 1.64934,-0.378659 1.64933,-0.194446 1.64933,0.133042 1.64933,-0.286553 6.59733,-0.286552 1.64933,0.0614 1.64934,-0.09211 1.64933,0.10234 6.59733,-0.133042 1.64933,0.07164 1.64933,-0.112574 1.64933,0.04094 1.64934,-0.09211 3.29866,0.122809 3.29866,-0.07164 8.24666,-0.05117 1.64934,0.143277 1.64933,-0.102341 3.29866,0.02047 1.64934,-0.112575 4.94799,0.122809 8.24666,-0.09211 6.59733,0.01023 3.29867,-0.07164 4.94799,-0.01023 8.24666,0.0307 3.29867,-0.10234 1.64933,0.122808 4.948,-0.122808 6.59733,0.08187 3.29866,-0.0614 4.948,0.02047 6.59732,-0.05117 18.14266,0.0307 3.29866,-0.0307 9.896,0.02047 h 13.19465 l 8.24666,-0.01023 h 56.0773 v 0"
       style="fill:none;stroke:#fa8072;stroke-width:1.5;stroke-linecap:square;stroke-linejoin:round;stroke-miterlimit:10;stroke-dasharray:none;stroke-opacity:1"
       transform="matrix(1.3333333,0,0,-1.3333333,-20.13986,358.10589)"
       clip-path="url(#clipPath28)" />
    <path
       id="path29"
       d="M 159.86014,315.8659 V 20.185903"
       style="fill:none;stroke:#000000;stroke-width:1.06667;stroke-linecap:square;stroke-linejoin:miter;stroke-miterlimit:10;stroke-dasharray:none;stroke-opacity:1" />
    <path
       id="path30"
       d="M 667.13284,315.8659 V 20.185903"
       style="fill:none;stroke:#000000;stroke-width:1.06667;stroke-linecap:square;stroke-linejoin:miter;stroke-miterlimit:10;stroke-dasharray:none;stroke-opacity:1" />
    <path
       id="path31"
       d="m 159.86014,315.8659 h 507.2727"
       style="fill:none;stroke:#000000;stroke-width:1.06667;stroke-linecap:square;stroke-linejoin:miter;stroke-miterlimit:10;stroke-dasharray:none;stroke-opacity:1" />
    <path
       id="path32"
       d="m 159.86014,20.185903 h 507.2727"
       style="fill:none;stroke:#000000;stroke-width:1.06667;stroke-linecap:square;stroke-linejoin:miter;stroke-miterlimit:10;stroke-dasharray:none;stroke-opacity:1" />
    <path
       id="path33"
       d="M 768.49988,267.12726 H 1192.5359 V 20.098149 H 768.49988 Z"
       style="fill:#ffffff;fill-opacity:1;fill-rule:nonzero;stroke:none;stroke-width:1.11425" />
    <path
       id="path48"
       d="m -1,239.90974 0.282297,0.22466 8.136705,35.65901 L 13.96724,289 m 625.48525,0 2.62953,-6.90861 8.13671,-39.56198 8.1367,-16.94247 8.13671,-31.75603 8.13671,-24.3936 8.1367,-13.74912 8.13671,-15.43449 8.1367,-16.85376 8.13671,-14.45876 8.1367,-9.491324 8.13671,-11.265408 8.1367,-9.31392 8.13671,-6.564096 8.1367,-8.072064 8.13671,-7.717248 8.1367,-0.266112 8.13671,-7.007616 8.1367,-4.4352 8.13671,0.0887 8.13671,-1.685376 8.1367,-3.814272 8.13671,-1.507968 8.1367,0.177408 8.13671,-2.572416 8.1367,0.0887 8.13671,-0.532224 8.1367,-0.177408 8.13671,-0.709632 8.1367,-0.266112 8.13671,0.177408 8.13671,-1.064448 8.1367,0.532224 8.13671,0.0887 8.1367,0.532224 h 8.13671 l 8.1367,-0.266112 8.13671,0.177408 8.1367,-0.44352 8.13671,-0.177408 8.1367,0.709632 h 8.13671 l 8.13671,-0.88704 8.1367,0.798336 8.1367,-0.354816 8.13675,-0.88704 8.1367,1.507968 8.1367,-0.620928 8.1367,-0.798336 8.1367,0.354816 8.1367,-0.354816 16.2734,0.354816 8.1367,-0.532224 8.1367,0.354816 7.6726,-0.334577 v 0"
       style="fill:none;stroke:#800000;stroke-width:1.5;stroke-linecap:square;stroke-linejoin:round;stroke-miterlimit:10;stroke-dasharray:none;stroke-opacity:1"
       transform="matrix(1.114551,0,0,-1.113948,109.19232,302.41713)"
       clip-path="url(#clipPath49)" />
    <path
       id="path50"
       d="m -1,256.77671 0.282297,0.56627 L 8.507809,289 m 624.782581,0 0.65493,-2.3847 8.1367,-30.51418 16.27341,-38.58624 8.13671,-27.67565 8.13671,-21.73248 8.1367,-5.14483 8.13671,-26.6999 8.1367,-6.29799 8.13671,-12.95078 8.1367,-16.41024 8.13671,-10.200962 8.1367,-5.32224 8.13671,-10.733184 8.1367,-5.943168 8.13671,-6.297984 8.1367,-7.273728 8.13671,-2.483712 8.1367,-3.902976 8.13671,-0.798336 8.13671,-3.814272 8.1367,-1.419264 8.13671,-2.66112 8.1367,-1.685376 8.13671,-0.620928 8.1367,0.177408 8.13671,-1.153152 8.1367,0.354816 8.13671,-1.241856 8.1367,-0.44352 16.27342,-0.44352 8.1367,0.177408 h 8.13671 l 8.1367,0.177408 8.13671,-0.0887 8.1367,-0.709632 8.13671,-0.0887 8.1367,-0.709632 8.13671,1.419264 8.1367,-0.44352 8.13671,-0.620928 16.27341,0.177408 8.1367,-0.0887 8.13675,0.975744 8.1367,-0.709632 8.1367,-0.177408 h 8.1367 l 8.1367,0.798336 8.1367,-0.620928 8.1367,-0.354816 16.2734,-0.354816 8.1367,-0.620928 7.6726,0.250933 v 0"
       style="fill:none;stroke:#ff0000;stroke-width:1.5;stroke-linecap:square;stroke-linejoin:round;stroke-miterlimit:10;stroke-dasharray:none;stroke-opacity:1"
       transform="matrix(1.114551,0,0,-1.113948,109.19232,302.41713)"
       clip-path="url(#clipPath51)" />
    <path
       id="path52"
       d="m -1,243.39725 0.282297,0.64013 8.136705,9.66873 L 15.412739,289 m 632.793641,0 2.01235,-9.12621 8.1367,-27.05472 8.13671,-28.65139 8.13671,-15.5232 8.1367,-23.86138 8.13671,-18.71654 8.1367,-25.54675 8.13671,-8.69299 8.1367,-14.90228 8.13671,-11.70892 8.1367,-15.789316 8.13671,-6.741504 8.1367,-8.072064 8.13671,-7.273728 8.1367,-4.080384 8.13671,-6.564096 8.1367,-3.725568 8.13671,-2.306304 8.13671,-4.967424 16.27341,-4.257792 8.1367,-0.620928 8.13671,-1.153152 8.1367,-0.88704 8.13671,-1.507968 8.1367,-1.77408 8.13671,0.266112 8.1367,-0.88704 8.13671,0.354816 8.13671,-0.532224 8.1367,-0.177408 8.13671,-0.709632 8.1367,0.44352 8.13671,-0.0887 8.1367,-0.44352 8.13671,-0.709632 8.1367,1.33056 8.13671,-0.620928 8.1367,0.177408 8.13671,-0.44352 8.13671,0.0887 8.1367,0.266112 16.27345,-0.709632 16.2734,0.44352 8.1367,0.177408 16.2734,-0.798336 8.1367,1.33056 8.1367,-1.419264 8.1367,-0.0887 8.1367,0.975744 7.6726,-0.752799 v 0"
       style="fill:none;stroke:#ff6347;stroke-width:1.5;stroke-linecap:square;stroke-linejoin:round;stroke-miterlimit:10;stroke-dasharray:none;stroke-opacity:1"
       transform="matrix(1.114551,0,0,-1.113948,109.19232,302.41713)"
       clip-path="url(#clipPath53)" />
    <path
       id="path54"
       d="m -1,271.12069 0.282297,0.32622 L 4.561387,289 m 630.495743,0 7.02489,-32.01184 8.13671,-21.99859 8.1367,-21.46637 8.13671,-24.03878 8.13671,-15.07968 8.1367,-19.42618 8.13671,-17.38598 8.1367,-12.68468 8.13671,-17.29728 8.1367,-10.467068 8.13671,-11.088 8.1367,-8.072064 8.13671,-8.42688 8.1367,-4.080384 8.13671,-8.338176 8.1367,-2.483712 8.13671,-3.370752 8.1367,-2.395008 8.13671,-3.370752 8.13671,-2.128896 8.1367,-3.282048 8.13671,-1.685376 8.1367,1.153152 8.13671,-2.483712 8.1367,-0.798336 h 8.13671 l 8.1367,-1.419264 8.13671,-0.266112 8.1367,0.532224 8.13671,-0.798336 8.13671,0.88704 8.1367,-0.354816 8.13671,-0.975744 h 8.1367 l 8.13671,0.177408 8.1367,0.620928 8.13671,-0.975744 8.1367,0.354816 8.13671,-0.798336 8.1367,0.975744 8.13671,0.0887 8.13671,-0.620928 h 8.1367 l 8.1367,-0.177408 8.13675,0.532224 8.1367,-0.0887 8.1367,-1.064448 8.1367,0.354816 8.1367,1.241856 8.1367,-0.88704 8.1367,0.266112 8.1367,-0.0887 8.1367,-0.975744 8.1367,0.44352 7.6726,-0.418222 v 0"
       style="fill:none;stroke:#fa8072;stroke-width:1.5;stroke-linecap:square;stroke-linejoin:round;stroke-miterlimit:10;stroke-dasharray:none;stroke-opacity:1"
       transform="matrix(1.114551,0,0,-1.113948,109.19232,302.41713)"
       clip-path="url(#clipPath55)" />
    <path
       id="path56"
       d="M 768.49988,272.51217 V 20.107847"
       style="fill:none;stroke:#000000;stroke-width:0.901048;stroke-linecap:square;stroke-linejoin:miter;stroke-miterlimit:10;stroke-dasharray:none;stroke-opacity:1" />
    <path
       id="path57"
       d="M 1192.5359,272.33267 V 20.107524"
       style="fill:none;stroke:#000000;stroke-width:0.900728;stroke-linecap:square;stroke-linejoin:miter;stroke-miterlimit:10;stroke-dasharray:none;stroke-opacity:1" />
    <path
       id="path58"
       d="M 768.49988,273.12726 H 1192.5359"
       style="fill:none;stroke:#000000;stroke-width:0.891402;stroke-linecap:square;stroke-linejoin:miter;stroke-miterlimit:10;stroke-dasharray:none;stroke-opacity:1" />
    <path
       id="path59"
       d="M 768.49988,20.098149 H 1192.5359"
       style="fill:none;stroke:#000000;stroke-width:0.891402;stroke-linecap:square;stroke-linejoin:miter;stroke-miterlimit:10;stroke-dasharray:none;stroke-opacity:1" />
    <path
       id="path60"
       d="m 464.22114,133.40957 h 134.6667 c 1.7777,0 2.6666,-0.88889 2.6666,-2.66667 V 41.409571 c 0,-1.777774 -0.8889,-2.666667 -2.6666,-2.666667 h -134.6667 c -1.7778,0 -2.6667,0.888893 -2.6667,2.666667 V 130.7429 c 0,1.77778 0.8889,2.66667 2.6667,2.66667 z"
       style="fill:#4c4c4c;fill-opacity:0.5;fill-rule:nonzero;stroke:#4c4c4c;stroke-width:1.33333;stroke-linecap:butt;stroke-linejoin:miter;stroke-miterlimit:10;stroke-dasharray:none;stroke-opacity:0.5" />
    <path
       id="path61"
       d="m 461.55444,130.7429 h 134.6667 c 1.7778,0 2.6667,-0.88889 2.6667,-2.66666 V 38.742904 c 0,-1.777773 -0.8889,-2.666667 -2.6667,-2.666667 h -134.6667 c -1.7777,0 -2.6666,0.888894 -2.6666,2.666667 v 89.333336 c 0,1.77777 0.8889,2.66666 2.6666,2.66666 z"
       style="fill:#ffffff;fill-opacity:1;fill-rule:nonzero;stroke:#cccccc;stroke-width:1.33333;stroke-linecap:butt;stroke-linejoin:miter;stroke-miterlimit:10;stroke-dasharray:none;stroke-opacity:1" />
    <path
       id="path62"
       d="m 464.22114,47.40957 h 13.3333 13.3334"
       style="fill:none;stroke:#800000;stroke-width:2;stroke-linecap:square;stroke-linejoin:round;stroke-miterlimit:10;stroke-dasharray:none;stroke-opacity:1" />
    <text
       id="text62"
       xml:space="preserve"
       x="509.58188"
       y="53.492897"
       style="font-size:16px;stroke-width:1.33333"><tspan
         style="font-style:oblique;font-variant:normal;font-weight:normal;font-size:9.33333px;font-family:'DejaVu Sans';writing-mode:lr-tb;fill:#000000;fill-opacity:1;fill-rule:nonzero;stroke:none;stroke-width:1.33333"
         x="509.58188 514.44452 520.18671"
         y="53.492897"
         sodipodi:role="line"
         id="tspan62">sep</tspan><tspan
         style="font-variant:normal;font-weight:normal;font-size:13.3333px;font-family:'DejaVu Sans';writing-mode:lr-tb;fill:#000000;fill-opacity:1;fill-rule:nonzero;stroke:none;stroke-width:1.33333"
         x="526.47577 537.64764 541.88593 550.36896 558.85211 563.09039 571.54083"
         y="51.305397"
         sodipodi:role="line"
         id="tspan63">= 50 nm</tspan></text>
    <g
       id="g64"
       transform="translate(-675.22732,-46.238437)">
      <path
         d="m 329,100 c 8,-16 30,-24 66,-24 h 43 L 423,0 h -54 c -59,0 -99,15 -119,47 -21,32 -24,82 -10,151 l 50,259 H 84 l 18,90 H 606 L 589,457 H 382 L 330,193 c -10,-48 -10,-79 -1,-93 z"
         style="fill:#000000;fill-opacity:1;fill-rule:nonzero;stroke:none"
         transform="matrix(0.01333333,0,0,-0.01333333,1176.7818,97.543833)"
         clip-path="url(#clipPath63)"
         id="path64" />
    </g>
    <path
       id="path65"
       d="m 464.22114,70.076236 h 13.3333 13.3334"
       style="fill:none;stroke:#ff0000;stroke-width:2;stroke-linecap:square;stroke-linejoin:round;stroke-miterlimit:10;stroke-dasharray:none;stroke-opacity:1" />
    <text
       id="text65"
       xml:space="preserve"
       x="509.58188"
       y="76.159561"
       style="font-size:16px;stroke-width:1.33333"><tspan
         style="font-style:oblique;font-variant:normal;font-weight:normal;font-size:9.33333px;font-family:'DejaVu Sans';writing-mode:lr-tb;fill:#000000;fill-opacity:1;fill-rule:nonzero;stroke:none;stroke-width:1.33333"
         x="509.58188 514.44452 520.18671"
         y="76.159561"
         sodipodi:role="line"
         id="tspan65">sep</tspan><tspan
         style="font-variant:normal;font-weight:normal;font-size:13.3333px;font-family:'DejaVu Sans';writing-mode:lr-tb;fill:#000000;fill-opacity:1;fill-rule:nonzero;stroke:none;stroke-width:1.33333"
         x="526.47577 537.64764 541.88593 550.36896 558.85211 567.33514 571.57343 580.02399"
         y="73.972061"
         sodipodi:role="line"
         id="tspan66">= 100 nm</tspan></text>
    <g
       id="g67"
       transform="translate(-675.22732,-46.238437)">
      <path
         d="m 329,100 c 8,-16 30,-24 66,-24 h 43 L 423,0 h -54 c -59,0 -99,15 -119,47 -21,32 -24,82 -10,151 l 50,259 H 84 l 18,90 H 606 L 589,457 H 382 L 330,193 c -10,-48 -10,-79 -1,-93 z"
         style="fill:#000000;fill-opacity:1;fill-rule:nonzero;stroke:none"
         transform="matrix(0.01333333,0,0,-0.01333333,1176.7818,120.2105)"
         clip-path="url(#clipPath66)"
         id="path67" />
    </g>
    <path
       id="path68"
       d="m 464.22114,92.742902 h 13.3333 13.3334"
       style="fill:none;stroke:#ff6347;stroke-width:2;stroke-linecap:square;stroke-linejoin:round;stroke-miterlimit:10;stroke-dasharray:none;stroke-opacity:1" />
    <text
       id="text68"
       xml:space="preserve"
       x="509.58188"
       y="98.826233"
       style="font-size:16px;stroke-width:1.33333"><tspan
         style="font-style:oblique;font-variant:normal;font-weight:normal;font-size:9.33333px;font-family:'DejaVu Sans';writing-mode:lr-tb;fill:#000000;fill-opacity:1;fill-rule:nonzero;stroke:none;stroke-width:1.33333"
         x="509.58188 514.44452 520.18671"
         y="98.826233"
         sodipodi:role="line"
         id="tspan68">sep</tspan><tspan
         style="font-variant:normal;font-weight:normal;font-size:13.3333px;font-family:'DejaVu Sans';writing-mode:lr-tb;fill:#000000;fill-opacity:1;fill-rule:nonzero;stroke:none;stroke-width:1.33333"
         x="526.47577 537.64764 541.88593 550.36896 558.85211 567.33514 571.57343 580.02399"
         y="96.638733"
         sodipodi:role="line"
         id="tspan69">= 150 nm</tspan></text>
    <g
       id="g70"
       transform="translate(-675.22732,-46.238437)">
      <path
         d="m 329,100 c 8,-16 30,-24 66,-24 h 43 L 423,0 h -54 c -59,0 -99,15 -119,47 -21,32 -24,82 -10,151 l 50,259 H 84 l 18,90 H 606 L 589,457 H 382 L 330,193 c -10,-48 -10,-79 -1,-93 z"
         style="fill:#000000;fill-opacity:1;fill-rule:nonzero;stroke:none"
         transform="matrix(0.01333333,0,0,-0.01333333,1176.7818,142.87717)"
         clip-path="url(#clipPath69)"
         id="path70" />
    </g>
    <path
       id="path71"
       d="m 464.22114,115.40957 h 13.3333 13.3334"
       style="fill:none;stroke:#fa8072;stroke-width:2;stroke-linecap:square;stroke-linejoin:round;stroke-miterlimit:10;stroke-dasharray:none;stroke-opacity:1" />
    <text
       id="text71"
       xml:space="preserve"
       x="509.58188"
       y="121.49288"
       style="font-size:16px;stroke-width:1.33333"><tspan
         style="font-style:oblique;font-variant:normal;font-weight:normal;font-size:9.33333px;font-family:'DejaVu Sans';writing-mode:lr-tb;fill:#000000;fill-opacity:1;fill-rule:nonzero;stroke:none;stroke-width:1.33333"
         x="509.58188 514.44452 520.18671"
         y="121.49288"
         sodipodi:role="line"
         id="tspan71">sep</tspan><tspan
         style="font-variant:normal;font-weight:normal;font-size:13.3333px;font-family:'DejaVu Sans';writing-mode:lr-tb;fill:#000000;fill-opacity:1;fill-rule:nonzero;stroke:none;stroke-width:1.33333"
         x="526.47577 537.64764 541.88593 550.36896 558.85211 567.33514 571.57343 580.02399"
         y="119.30538"
         sodipodi:role="line"
         id="tspan72">= 200 nm</tspan></text>
    <g
       id="g73"
       transform="translate(-675.22732,-46.238437)">
      <path
         d="m 329,100 c 8,-16 30,-24 66,-24 h 43 L 423,0 h -54 c -59,0 -99,15 -119,47 -21,32 -24,82 -10,151 l 50,259 H 84 l 18,90 H 606 L 589,457 H 382 L 330,193 c -10,-48 -10,-79 -1,-93 z"
         style="fill:#000000;fill-opacity:1;fill-rule:nonzero;stroke:none"
         transform="matrix(0.01333333,0,0,-0.01333333,1176.7818,165.54383)"
         clip-path="url(#clipPath72)"
         id="path73" />
    </g>
    <rect
       style="fill:none;stroke:#010100;stroke-width:1.89;stroke-linejoin:round;stroke-dasharray:none;paint-order:fill markers stroke"
       id="rect73"
       width="105.79052"
       height="44.757526"
       x="465.88519"
       y="268.54517"
       ry="1.5801234" />
    <path
       style="fill:none;stroke:#010100;stroke-width:1.89;stroke-linejoin:round;stroke-dasharray:1.89, 3.78;stroke-dashoffset:0;paint-order:fill markers stroke"
       d="M 465.88518,268.54517 758.84355,26.44763"
       id="path74"
       sodipodi:nodetypes="cc" />
    <path
       style="fill:none;stroke:#010100;stroke-width:1.89;stroke-linejoin:round;stroke-dasharray:1.89, 3.78;stroke-dashoffset:0;paint-order:fill markers stroke"
       d="M 569.64127,311.26826 1182.0056,274.64847"
       id="path75" />
    <text
       id="text12-0"
       xml:space="preserve"
       x="1176.6305"
       y="273.94742"
       style="font-size:15.2967px;stroke-width:1.27473"
       transform="scale(1.0199694,0.98042156)"><tspan
         style="font-variant:normal;font-weight:normal;font-size:12.7473px;font-family:'DejaVu Sans';writing-mode:lr-tb;fill:#000000;fill-opacity:1;fill-rule:nonzero;stroke:none;stroke-width:1.27473"
         x="1176.6305"
         y="273.94742"
         id="tspan12-6">0</tspan></text>
    <path
       id="path10-7"
       d="m 1192.7879,265.06601 h 3.7676"
       style="fill:#000000;fill-opacity:1;fill-rule:nonzero;stroke:#000000;stroke-width:0.958423;stroke-linecap:butt;stroke-linejoin:round;stroke-miterlimit:10;stroke-dasharray:none;stroke-opacity:1" />
    <path
       id="path12-3"
       d="m 1197.3648,24.50366 h -4.6666"
       style="fill:#000000;fill-opacity:1;fill-rule:nonzero;stroke:#000000;stroke-width:1.06667;stroke-linecap:butt;stroke-linejoin:round;stroke-miterlimit:10;stroke-dasharray:none;stroke-opacity:1" />
    <text
       id="text13-7"
       xml:space="preserve"
       x="1201.1375"
       y="29.832706"
       style="font-size:16px;stroke-width:1.33333"><tspan
         style="font-variant:normal;font-weight:normal;font-size:13.3333px;font-family:'DejaVu Sans';writing-mode:lr-tb;fill:#000000;fill-opacity:1;fill-rule:nonzero;stroke:none;stroke-width:1.33333"
         x="1201.1375 1209.6174 1218.0974 1226.5775"
         y="29.832706"
         sodipodi:role="line"
         id="tspan13-5">2500</tspan></text>
  </g>
</svg>
